# xmcd
#
# Track frame offsets:
#	150
#	17415
#	36135
#	53280
#	66936
#	81434
#	97323
#	108164
#	119542
#	135960
#	153406
#	164178
#	185922
#	198678
#
# Disc length: 2781 seconds
#
# Revision: 1
# Processed by: cddbd v1.5.2PL0 Copyright (c) Steve Scherf et al.
# Submitted via: audiograbber 1.83.01
#
DISCID=c40adb0e
DTITLE=Deer Creek Boys - Another Lonely Day
DYEAR=1900
DGENRE=Bluegrass
TTITLE0=Game Of Chase
TTITLE1=Kristine
TTITLE2=Faith
TTITLE3=Grass Patch
TTITLE4=Just Another Day Without You
TTITLE5=Take This Hammer
TTITLE6=Lifeboat
TTITLE7=Suzanne
TTITLE8=Crying Tonight
TTITLE9=If I
TTITLE10=Slowly Getting You Out Of The Way
TTITLE11=Snow Covered Heart
TTITLE12=Big Spike Hammer
TTITLE13=Haulin' Grass
EXTD=
EXTT0=
EXTT1=
EXTT2=
EXTT3=
EXTT4=
EXTT5=
EXTT6=
EXTT7=
EXTT8=
EXTT9=
EXTT10=
EXTT11=
EXTT12=
EXTT13=
PLAYORDER=
